<svg width="30" height="30" viewBox="0 0 30 30" fill="none" xmlns="http://www.w3.org/2000/svg">
<path d="M15 30C23.2708 30 30 23.2708 30 15C30 6.7292 23.2708 0 15 0C6.7292 0 0 6.7292 0 15C0 23.2708 6.7292 30 15 30ZM5.57032 25.0217C5.73483 24.6699 5.90173 24.3205 6.07823 23.9759C7.20456 21.7881 8.77997 19.8574 10.6987 18.313C10.9869 18.0801 11.2919 17.8711 11.6137 17.6886C11.0397 17.2876 10.5426 16.7905 10.144 16.2165C8.27319 13.5364 8.9312 9.84509 11.6137 7.97674C14.2962 6.10596 17.9851 6.76637 19.8556 9.44646C21.724 12.1314 21.066 15.82 18.3834 17.6884C18.7053 17.8709 19.0127 18.0798 19.3008 18.3127C21.2197 19.8569 22.7925 21.7879 23.9188 23.9756C24.0966 24.3202 24.2659 24.6708 24.4292 25.0226C21.9628 27.3437 18.6465 28.7713 14.9995 28.7713C11.3529 28.7701 8.03564 27.3427 5.57032 25.0217Z" fill="#C4C4C4"/>
</svg>
