<svg width="20" height="20" viewBox="0 0 20 20" fill="none" xmlns="http://www.w3.org/2000/svg">
<rect width="20" height="20" rx="10" fill="#FCCF4D"/>
<path d="M10 6C9.70144 6 9.45946 6.24198 9.45946 6.54054V9.45946H6.54054C6.24198 9.45946 6 9.70144 6 10C6 10.2986 6.24198 10.5405 6.54054 10.5405H9.45946V13.4595C9.45946 13.758 9.70144 14 10 14C10.2986 14 10.5405 13.758 10.5405 13.4595V10.5405H13.4595C13.758 10.5405 14 10.2986 14 10C14 9.70144 13.758 9.45946 13.4595 9.45946H10.5405V6.54054C10.5405 6.24198 10.2986 6 10 6Z" fill="black"/>
</svg>
